<svg width="1011" height="295" viewBox="0 0 1011 295" fill="none" xmlns="http://www.w3.org/2000/svg">
<ellipse cx="717.502" cy="164.403" rx="8.73797" ry="20.3886" fill="black"/>
<ellipse cx="602.369" cy="164.403" rx="8.73797" ry="20.3886" fill="black"/>
<path d="M189.142 294.184H116.026L111.284 267.369H78.7305L74.7793 294.184H0.947266L55.6006 19.583L134.985 13.5811L189.142 294.184ZM84.7275 201.778H106.145L95.293 127.186L84.7275 201.778Z" fill="black"/>
<path d="M265.048 3.97656C272.253 3.97656 279.459 4.91762 286.665 6.7998C293.871 8.53721 300.748 11.3614 307.299 15.2705C313.943 19.1797 320.073 24.1019 325.688 30.0381C331.396 35.8294 336.308 42.779 340.426 50.8867C344.543 58.9946 347.772 68.2611 350.111 78.6855C352.544 88.9652 353.761 100.548 353.761 113.434C353.761 127.478 352.404 139.929 349.69 150.788C346.977 161.647 343.233 171.13 338.461 179.237C333.782 187.345 328.261 194.223 321.897 199.869C315.534 205.516 308.703 210.149 301.403 213.769C294.198 217.243 286.711 219.85 278.944 221.587C271.177 223.18 263.551 224.049 256.064 224.193V294.187H190.668C190.688 271.511 190.729 248.904 190.793 226.365C190.887 193.499 191.027 160.343 191.214 126.898C191.401 109.235 191.448 91.5709 191.354 73.9072C191.261 56.2437 191.495 38.4355 192.057 20.4824C204.035 14.9808 216.012 10.8544 227.99 8.10352C239.968 5.35264 252.321 3.97658 265.048 3.97656ZM271.505 90.8477C269.54 90.8477 267.481 91.1368 265.329 91.7158C263.27 92.1501 261.305 92.7293 259.434 93.4531L257.749 156.869C259.059 157.159 260.323 157.303 261.539 157.303H265.329C268.698 157.303 271.927 156.435 275.015 154.697C278.196 152.96 281.003 150.498 283.437 147.312C285.869 143.983 287.788 140.146 289.191 135.803C290.689 131.314 291.438 126.319 291.438 120.817C291.437 111.406 289.565 104.095 285.822 98.8828C282.173 93.5259 277.4 90.8477 271.505 90.8477Z" fill="black"/>
<path d="M510.685 99.459L469.172 102.161L459.649 294.187H399.832L400.076 107.116L358.563 110.719L360.235 4.42773L512.078 3.97656L510.685 99.459Z" fill="black"/>
<path d="M599.303 4.87109C612.814 4.87109 625.113 8.44771 636.201 15.5996C647.382 22.7516 656.887 33.0022 664.713 46.3525C672.633 59.5438 678.736 75.596 683.022 94.5088C687.401 113.263 689.591 134.242 689.591 157.446C689.591 171.909 688.612 185.895 686.656 199.404C684.699 212.754 681.857 225.31 678.13 237.071C674.497 248.832 670.024 259.64 664.713 269.494C659.579 279.033 653.768 287.263 647.281 294.187H553.987C548.042 287.89 542.602 280.533 537.667 272.116C532.356 262.739 527.79 252.408 523.97 241.124C520.243 229.681 517.309 217.443 515.166 204.411C513.116 191.379 512.09 177.79 512.09 163.645C512.09 149.818 513.069 136.308 515.026 123.117C516.983 109.767 519.778 97.2112 523.412 85.4502C527.139 73.6893 531.611 62.882 536.829 53.0283C542.046 43.1746 547.87 34.6715 554.299 27.5195C560.822 20.3676 567.857 14.8044 575.404 10.8311C582.951 6.85785 590.917 4.87111 599.303 4.87109ZM600.981 109.767C596.602 109.767 592.688 111.118 589.241 113.819C585.793 116.521 582.811 120.256 580.295 125.024C577.873 129.633 576.009 135.116 574.705 141.474C573.4 147.672 572.749 154.268 572.749 161.261C572.749 167.936 573.307 174.611 574.425 181.286C575.543 187.961 577.22 194.001 579.457 199.404C581.693 204.808 584.442 209.179 587.703 212.517C591.057 215.854 594.924 217.523 599.303 217.523C603.683 217.523 607.596 216.092 611.043 213.231C614.584 210.212 617.566 206.238 619.989 201.312C622.411 196.226 624.274 190.425 625.579 183.909C626.883 177.393 627.536 170.638 627.536 163.645C627.536 156.811 626.931 150.215 625.719 143.857C624.601 137.341 622.923 131.62 620.687 126.693C618.451 121.608 615.656 117.555 612.301 114.535C609.04 111.357 605.267 109.767 600.981 109.767Z" fill="black"/>
<path d="M719.221 4.87109C732.732 4.87112 745.031 8.44768 756.119 15.5996C767.3 22.7515 776.804 33.0024 784.63 46.3525C792.55 59.5438 798.654 75.596 802.94 94.5088C807.319 113.263 809.508 134.242 809.508 157.446C809.508 171.909 808.53 185.895 806.574 199.404C804.617 212.754 801.775 225.31 798.048 237.071C794.414 248.832 789.941 259.64 784.63 269.494C779.496 279.033 773.685 287.263 767.198 294.187H673.905C667.96 287.89 662.52 280.533 657.585 272.116C652.274 262.739 647.708 252.408 643.888 241.124C640.161 229.681 637.226 217.443 635.083 204.411C633.033 191.379 632.008 177.79 632.008 163.645C632.008 149.818 632.986 136.308 634.943 123.117C636.9 109.767 639.695 97.2111 643.329 85.4502C647.056 73.6893 651.529 62.8821 656.747 53.0283C661.964 43.1745 667.788 34.6715 674.217 27.5195C680.74 20.3676 687.775 14.8044 695.322 10.8311C702.869 6.85791 710.836 4.87109 719.221 4.87109ZM720.898 109.767C716.519 109.767 712.605 111.118 709.158 113.819C705.71 116.521 702.729 120.257 700.213 125.024C697.791 129.633 695.927 135.116 694.623 141.474C693.318 147.672 692.666 154.268 692.666 161.261C692.666 167.936 693.225 174.611 694.343 181.286C695.461 187.961 697.138 194.001 699.375 199.404C701.611 204.808 704.359 209.179 707.621 212.517C710.975 215.854 714.842 217.523 719.221 217.523C723.6 217.523 727.514 216.092 730.961 213.231C734.502 210.212 737.483 206.238 739.906 201.312C742.328 196.226 744.192 190.425 745.497 183.909C746.801 177.393 747.454 170.638 747.454 163.645C747.454 156.811 746.848 150.215 745.636 143.857C744.518 137.341 742.841 131.62 740.605 126.693C738.369 121.608 735.573 117.555 732.219 114.535C728.958 111.357 725.184 109.767 720.898 109.767Z" fill="black"/>
<path d="M942.646 158.184L944.888 8.875L1011 5.36133L1001.22 294.187H922.733L888.301 154.231L882.992 294.187H819.473L824.149 5.36133L894.184 0.0917969L942.646 158.184Z" fill="black"/>
</svg>
